<svg width="10" height="10" viewBox="0 0 10 10" fill="none" xmlns="http://www.w3.org/2000/svg">
<path d="M6.11331 10C6.55434 9.98638 6.97261 9.80104 7.27896 9.48347C7.58531 9.16591 7.7555 8.74124 7.75325 8.30001L7.94061 2.0783H8.81913C8.88226 2.07296 8.94108 2.04411 8.98395 1.99745C9.02682 1.9508 9.05061 1.88976 9.05061 1.8264C9.05061 1.76304 9.02682 1.70199 8.98395 1.65534C8.94108 1.60869 8.88226 1.57983 8.81913 1.57449H6.35711V1.00763C6.36541 0.75028 6.27178 0.500062 6.09659 0.311374C5.92139 0.122687 5.6788 0.0107858 5.42154 0H3.64108C3.38351 0.0103237 3.14046 0.122024 2.96488 0.310762C2.7893 0.499501 2.69543 0.74998 2.70371 1.00763V1.57449H0.231485C0.168353 1.57983 0.10953 1.60869 0.0666598 1.65534C0.0237901 1.70199 0 1.76304 0 1.8264C0 1.88976 0.0237901 1.9508 0.0666598 1.99745C0.10953 2.04411 0.168353 2.07296 0.231485 2.0783H1.11001L1.29736 8.30001C1.29513 8.74165 1.46565 9.16666 1.77251 9.48429C2.07937 9.80192 2.49825 9.987 2.93971 10H6.11331ZM3.1709 1.00763C3.16683 0.878874 3.21375 0.753723 3.30146 0.659379C3.38917 0.565036 3.51057 0.509129 3.63928 0.503813H5.42034C5.54905 0.509129 5.67045 0.565036 5.75816 0.659379C5.84587 0.753723 5.89279 0.878874 5.88872 1.00763V1.57449H3.1721L3.1709 1.00763ZM1.77655 8.27358L1.5892 2.06449H7.48243L7.28307 8.27358C7.28393 8.58924 7.16231 8.89293 6.9438 9.12074C6.72529 9.34854 6.42693 9.4827 6.11151 9.49499H2.94991C2.63399 9.48481 2.33458 9.35146 2.11566 9.12346C1.89674 8.89545 1.77568 8.59086 1.77835 8.27479L1.77655 8.27358Z" fill="#FA4242"/>
<path d="M4.48443 8.21591C4.56456 8.2172 4.64193 8.18672 4.69965 8.13113C4.75738 8.07555 4.79075 7.99938 4.79249 7.91926V3.48523C4.78898 3.4058 4.75496 3.33079 4.69752 3.27583C4.64007 3.22086 4.56364 3.19019 4.48413 3.19019C4.40463 3.19019 4.32819 3.22086 4.27075 3.27583C4.21331 3.33079 4.17929 3.4058 4.17578 3.48523V7.91926C4.17752 7.99948 4.21097 8.07575 4.26882 8.13135C4.32668 8.18695 4.40421 8.21736 4.48443 8.21591Z" fill="#FA4242"/>
<path d="M3.11725 8.21591C3.19737 8.2172 3.27475 8.18672 3.33247 8.13113C3.39019 8.07555 3.42356 7.99938 3.4253 7.91926V3.48523C3.42179 3.4058 3.38777 3.33079 3.33033 3.27583C3.27289 3.22086 3.19645 3.19019 3.11695 3.19019C3.03744 3.19019 2.96101 3.22086 2.90356 3.27583C2.84612 3.33079 2.8121 3.4058 2.80859 3.48523V7.91926C2.81033 7.99948 2.84379 8.07575 2.90164 8.13135C2.95949 8.18695 3.03702 8.21736 3.11725 8.21591Z" fill="#FA4242"/>
<path d="M5.85016 8.21591C5.93028 8.2172 6.00766 8.18672 6.06538 8.13113C6.1231 8.07555 6.15647 7.99938 6.15821 7.91926V3.48523C6.1547 3.4058 6.12068 3.33079 6.06324 3.27583C6.0058 3.22086 5.92936 3.19019 5.84986 3.19019C5.77035 3.19019 5.69392 3.22086 5.63647 3.27583C5.57903 3.33079 5.54501 3.4058 5.5415 3.48523V7.91926C5.54324 7.99948 5.5767 8.07575 5.63455 8.13135C5.6924 8.18695 5.76993 8.21736 5.85016 8.21591Z" fill="#FA4242"/>
</svg>
