<svg width="58" height="58" viewBox="0 0 58 58" fill="none" xmlns="http://www.w3.org/2000/svg">
<path d="M29 58C45.0163 58 58 45.0163 58 29C58 12.9837 45.0163 0 29 0C12.9837 0 0 12.9837 0 29C0 45.0163 12.9837 58 29 58Z" fill="#03AEEE"/>
<path d="M37.5156 20.1929C37.1985 19.8755 36.822 19.6238 36.4075 19.452C35.993 19.2803 35.5488 19.1919 35.1001 19.1919C34.6515 19.1919 34.2073 19.2803 33.7928 19.452C33.3783 19.6238 33.0018 19.8755 32.6847 20.1929L19.1416 33.7359C19.0465 33.8275 18.9775 33.9427 18.9416 34.0699L17.1656 40.5019C17.1295 40.6313 17.1284 40.7681 17.1625 40.8981C17.1966 41.0281 17.2647 41.1467 17.3597 41.2418C17.4548 41.3368 17.5734 41.4049 17.7034 41.439C17.8334 41.4731 17.9702 41.472 18.0996 41.4359L24.5296 39.6559C24.6568 39.6201 24.7721 39.551 24.8636 39.4559L38.4067 25.9149C39.0458 25.2735 39.4047 24.4049 39.4047 23.4994C39.4047 22.5939 39.0458 21.7253 38.4067 21.0839L37.5156 20.1929ZM20.7966 34.2279L31.8836 23.1439L35.4536 26.7179L24.3706 37.8019L20.7966 34.2279ZM20.0836 35.6609L22.9386 38.5159L18.9886 39.6099L20.0836 35.6609ZM37.3337 24.8399L36.5287 25.6449L32.9536 22.0709L33.7586 21.2659C34.1148 20.9108 34.5972 20.7114 35.1001 20.7114C35.6031 20.7114 36.0855 20.9108 36.4417 21.2659L37.3326 22.1569C37.6879 22.5129 37.8875 22.9952 37.8876 23.4981C37.8878 24.0011 37.6886 24.4836 37.3337 24.8399V24.8399Z" fill="white"/>
</svg>
