<svg width="8" height="8" viewBox="0 0 8 8" fill="none" xmlns="http://www.w3.org/2000/svg">
<path d="M7.31918 0.359759C7.20529 0.245712 7.07004 0.155236 6.92115 0.0935048C6.77227 0.0317741 6.61267 0 6.4515 0C6.29033 0 6.13073 0.0317741 5.98185 0.0935048C5.83296 0.155236 5.69771 0.245712 5.58382 0.359759L0.719715 5.22434C0.686147 5.25747 0.661951 5.29891 0.64959 5.34442L0.010297 7.65375C-0.00290094 7.70038 -0.00342111 7.74968 0.00879042 7.79657C0.0210019 7.84346 0.0455029 7.88624 0.0797654 7.9205C0.114028 7.95477 0.156811 7.97927 0.203702 7.99148C0.250592 8.00369 0.299892 8.00317 0.346514 7.98997L2.65585 7.35068C2.70136 7.33832 2.74279 7.31412 2.77592 7.28055L7.63955 2.41501C7.86918 2.18462 7.99812 1.87261 7.99812 1.54733C7.99812 1.22205 7.86918 0.910032 7.63955 0.679646L7.31918 0.359759ZM1.3153 5.40302L5.29611 1.42173L6.57854 2.70367L2.59821 6.68497L1.3153 5.40302ZM1.0593 5.91743L2.0838 6.94097L0.66544 7.33387L1.0593 5.91743ZM7.2553 2.03076L6.96711 2.31895L5.68084 1.0346L5.96903 0.746409C6.09683 0.618705 6.27011 0.546969 6.45078 0.546969C6.63145 0.546969 6.80473 0.618705 6.93253 0.746409L7.25242 1.0663C7.37982 1.19407 7.45148 1.36707 7.45175 1.54751C7.45202 1.72795 7.38088 1.90116 7.25386 2.02932L7.2553 2.03076Z" fill="#03AEEE"/>
</svg>
