<svg width="24" height="15" viewBox="0 0 24 15" fill="none" xmlns="http://www.w3.org/2000/svg">
<path fill-rule="evenodd" clip-rule="evenodd" d="M1.375 1.75C1.02982 1.75 0.75 1.47018 0.75 1.125C0.75 0.779822 1.02982 0.5 1.375 0.5H18.875C19.2202 0.5 19.5 0.779822 19.5 1.125C19.5 1.47018 19.2202 1.75 18.875 1.75H1.375ZM1.375 8C1.02982 8 0.75 7.72018 0.75 7.375C0.75 7.02982 1.02982 6.75 1.375 6.75H22.625C22.9702 6.75 23.25 7.02982 23.25 7.375C23.25 7.72018 22.9702 8 22.625 8H1.375ZM1.375 14.25C1.02982 14.25 0.75 13.9702 0.75 13.625C0.75 13.2798 1.02982 13 1.375 13H10.125C10.4702 13 10.75 13.2798 10.75 13.625C10.75 13.9702 10.4702 14.25 10.125 14.25H1.375Z" fill="#212B4B"/>
</svg>
