<svg width="31" height="38" viewBox="0 0 31 38" fill="none" xmlns="http://www.w3.org/2000/svg">
<path d="M28.915 4.28833H27.8011V31.4991C27.8 32.3684 27.4541 33.2018 26.8394 33.8165C26.2247 34.4311 25.3913 34.777 24.522 34.7782H4.38184V35.7873C4.38243 36.3419 4.60302 36.8736 4.99517 37.2658C5.38733 37.6579 5.91903 37.8785 6.47362 37.8791H28.9083C29.4629 37.8785 29.9946 37.6579 30.3867 37.2658C30.7789 36.8736 30.9995 36.3419 31.0001 35.7873V6.38231C31.0006 6.10791 30.9472 5.83608 30.8427 5.58234C30.7382 5.3286 30.5848 5.09793 30.3912 4.90349C30.1976 4.70904 29.9676 4.55464 29.7143 4.44909C29.461 4.34354 29.1894 4.28891 28.915 4.28833Z" fill="#03AEEE"/>
<path d="M13.3058 33.5908H24.5242C25.0788 33.5902 25.6105 33.3696 26.0026 32.9774C26.3948 32.5853 26.6154 32.0536 26.616 31.499V2.09176C26.6154 1.53718 26.3948 1.00547 26.0026 0.613315C25.6105 0.221161 25.0788 0.000589676 24.5242 0L9.57889 0V0.6928C9.58668 0.766794 9.59041 0.841162 9.59004 0.915565V6.64508C9.58945 7.42654 9.27874 8.17583 8.72617 8.7284C8.17359 9.28098 7.42432 9.59168 6.64286 9.59227H0.908875C0.848729 9.59227 0.786353 9.59227 0.726206 9.59227H0V31.499C0.000589676 32.0536 0.22115 32.5853 0.613304 32.9774C1.00546 33.3696 1.53716 33.5902 2.09175 33.5908H13.3058ZM13.729 26.4779H6.41563C6.15331 26.4779 5.90173 26.3737 5.71624 26.1882C5.53075 26.0027 5.42655 25.7511 5.42655 25.4888C5.42655 25.2265 5.53075 24.9749 5.71624 24.7894C5.90173 24.6039 6.15331 24.4997 6.41563 24.4997H13.7335C13.9958 24.4997 14.2474 24.6039 14.4328 24.7894C14.6183 24.9749 14.7225 25.2265 14.7225 25.4888C14.7225 25.7511 14.6183 26.0027 14.4328 26.1882C14.2474 26.3737 13.9958 26.4779 13.7335 26.4779H13.729ZM21.0468 21.43H6.41563C6.15331 21.43 5.90173 21.3258 5.71624 21.1403C5.53075 20.9548 5.42655 20.7032 5.42655 20.4409C5.42655 20.1786 5.53075 19.927 5.71624 19.7415C5.90173 19.5561 6.15331 19.4519 6.41563 19.4519H21.0468C21.3092 19.4519 21.5607 19.5561 21.7462 19.7415C21.9317 19.927 22.0359 20.1786 22.0359 20.4409C22.0359 20.7032 21.9317 20.9548 21.7462 21.1403C21.5607 21.3258 21.3092 21.43 21.0468 21.43ZM6.41563 14.0944H21.0468C21.3092 14.0944 21.5607 14.1986 21.7462 14.384C21.9317 14.5695 22.0359 14.8211 22.0359 15.0834C22.0359 15.3457 21.9317 15.5973 21.7462 15.7828C21.5607 15.9683 21.3092 16.0725 21.0468 16.0725H6.41563C6.15331 16.0725 5.90173 15.9683 5.71624 15.7828C5.53075 15.5973 5.42655 15.3457 5.42655 15.0834C5.42655 14.8211 5.53075 14.5695 5.71624 14.384C5.90173 14.1986 6.15331 14.0944 6.41563 14.0944Z" fill="#03AEEE"/>
<path d="M0.90925 8.40475H6.65659C7.11676 8.40068 7.55692 8.21607 7.88232 7.89067C8.20772 7.56528 8.39232 7.12511 8.39639 6.66495V0.922067C8.39639 0.685743 8.30251 0.459099 8.1354 0.291992C7.96829 0.124886 7.74165 0.0310069 7.50532 0.0310069C7.39024 0.0308298 7.27631 0.0538142 7.1703 0.0985912C7.06429 0.143368 6.96837 0.209022 6.88826 0.291642L0.283284 6.90108C0.164704 7.02624 0.0849764 7.18311 0.0537752 7.35268C0.0225741 7.52224 0.0412365 7.69722 0.107498 7.85639C0.17376 8.01556 0.284774 8.15209 0.427084 8.24942C0.569394 8.34675 0.736886 8.40071 0.90925 8.40475Z" fill="#03AEEE"/>
</svg>
