<svg width="13" height="14" viewBox="0 0 13 14" fill="none" xmlns="http://www.w3.org/2000/svg">
<path fill-rule="evenodd" clip-rule="evenodd" d="M10.7399 1.84167C7.92202 1.52673 5.07783 1.52673 2.25997 1.84167C2.0693 1.86298 1.97749 2.08657 2.09815 2.23572L4.58937 5.31524C5.4818 6.41841 5.96868 7.79439 5.96868 9.21333V11.2599L7.03118 12.039V9.21333C7.03118 7.79439 7.51806 6.4184 8.41048 5.31524L10.9017 2.23572C11.0224 2.08657 10.9306 1.86298 10.7399 1.84167ZM2.14195 0.785747C5.03825 0.462043 7.96161 0.462043 10.8579 0.785747C11.8828 0.900295 12.3764 2.10219 11.7278 2.90397L9.23653 5.98348C8.49709 6.89754 8.09368 8.03764 8.09368 9.21333V13.0874C8.09368 13.2876 7.98113 13.4708 7.80256 13.5613C7.62398 13.6518 7.4097 13.6342 7.24826 13.5158L5.12326 11.9575C4.9868 11.8574 4.90618 11.6983 4.90618 11.5291V9.21333C4.90618 8.03764 4.50276 6.89754 3.76332 5.98348L1.2721 2.90397C0.623488 2.10219 1.11704 0.900296 2.14195 0.785747Z" fill="black"/>
</svg>
