<svg width="124" height="87" viewBox="0 0 124 87" fill="none" xmlns="http://www.w3.org/2000/svg">
<path fill-rule="evenodd" clip-rule="evenodd" d="M60.2158 37.2854C61.9018 34.3798 66.0979 34.3798 67.784 37.2855L72.9473 46.1839C73.4233 47.0041 74.2459 47.5638 75.1836 47.7054L83.7577 49.0004C87.4952 49.5649 88.8062 54.2839 85.8955 56.6953L79.6482 61.8711C78.7714 62.5976 78.3591 63.7435 78.5721 64.8621L80.322 74.052C81.0075 77.6519 77.2284 80.4489 73.9859 78.7416L65.4558 74.2501C64.5445 73.7703 63.4553 73.7703 62.5439 74.2501L54.0138 78.7416C50.7713 80.4489 46.9923 77.6519 47.6777 74.052L49.4277 64.8621C49.6407 63.7435 49.2284 62.5976 48.3516 61.8711L42.1043 56.6953C39.1936 54.2838 40.5046 49.5649 44.2421 49.0004L52.8162 47.7054C53.7539 47.5638 54.5765 47.0041 55.0524 46.1839L60.2158 37.2854ZM64.5405 39.1675C64.2996 38.7524 63.7002 38.7524 63.4593 39.1675L58.2959 48.0659C57.2489 49.8704 55.4391 51.1018 53.3762 51.4134L44.8021 52.7084C44.2682 52.789 44.0809 53.4631 44.4967 53.8076L50.744 58.9834C52.6731 60.5817 53.5801 63.1027 53.1115 65.5636L51.3616 74.7535C51.2636 75.2678 51.8035 75.6673 52.2667 75.4234L60.7968 70.932C62.8017 69.8763 65.198 69.8763 67.203 70.932L75.7331 75.4234C76.1963 75.6673 76.7361 75.2678 76.6382 74.7535L74.8883 65.5636C74.4196 63.1027 75.3267 60.5817 77.2558 58.9834L83.503 53.8076C83.9189 53.4631 83.7316 52.789 83.1976 52.7084L74.6235 51.4134C72.5607 51.1018 70.7509 49.8704 69.7038 48.0659L64.5405 39.1675Z" fill="#F0394A"/>
<circle cx="6.5" cy="34.5" r="3.5" fill="#03AEEE"/>
<circle cx="75.5" cy="25.5" r="3.5" fill="#F0394A"/>
<circle cx="40" cy="33" r="2" fill="#EAEBEE"/>
<circle cx="45.5" cy="13.5" r="1.5" fill="#EAEBEE"/>
<circle cx="21.5" cy="11.5" r="1.5" fill="#F0394A"/>
<circle cx="97.5" cy="14.5" r="1.5" fill="#03AEEE"/>
<circle cx="75.5" cy="1.5" r="1.5" fill="#03AEEE"/>
<circle cx="1.5" cy="72.5" r="1.5" fill="#03AEEE"/>
<circle cx="97" cy="45" r="2" fill="#EAEBEE"/>
<circle cx="122.5" cy="50.5" r="1.5" fill="#03AEEE"/>
<circle cx="18" cy="63" r="2" fill="#F0394A"/>
<circle cx="109" cy="65" r="2" fill="#F0394A"/>
</svg>
