<svg width="7" height="4" viewBox="0 0 7 4" fill="none" xmlns="http://www.w3.org/2000/svg">
<path d="M3.7262 3.74202C3.69804 3.77427 3.6633 3.80013 3.62432 3.81785C3.58534 3.83556 3.54302 3.84473 3.5002 3.84473C3.45738 3.84473 3.41506 3.83556 3.37608 3.81785C3.3371 3.80013 3.30236 3.77427 3.2742 3.74202L0.4352 0.500018C0.396452 0.456701 0.371121 0.403062 0.362286 0.345619C0.35345 0.288177 0.361489 0.229404 0.385427 0.176445C0.409364 0.123485 0.44817 0.0786188 0.497127 0.0472987C0.546083 0.0159786 0.603083 -0.000447273 0.6612 1.81198e-05L6.3392 1.81198e-05C6.39732 -0.000447273 6.45432 0.0159786 6.50327 0.0472987C6.55223 0.0786188 6.59104 0.123485 6.61497 0.176445C6.63891 0.229404 6.64695 0.288177 6.63811 0.345619C6.62928 0.403062 6.60395 0.456701 6.5652 0.500018L3.7262 3.74202Z" fill="black"/>
</svg>
